<svg width="18" height="18" viewBox="0 0 18 18" fill="none" xmlns="http://www.w3.org/2000/svg">
<path d="M10.646 7.23697C10.589 7.20497 10.486 7.18896 10.333 7.18896V10.731C10.534 10.731 10.657 10.69 10.704 10.609C10.751 10.528 10.774 10.308 10.774 9.94897V7.85697C10.774 7.61297 10.766 7.45696 10.751 7.38796C10.7453 7.35678 10.7329 7.32717 10.7148 7.30114C10.6967 7.2751 10.6732 7.25322 10.646 7.23697ZM14.145 8.41896C14.063 8.41896 14.008 8.44996 13.983 8.50996C13.958 8.57096 13.946 8.72396 13.946 8.96996V10.396C13.946 10.633 13.96 10.785 13.987 10.852C14.016 10.918 14.073 10.952 14.155 10.952C14.241 10.952 14.354 10.917 14.38 10.849C14.407 10.78 14.419 10.615 14.419 10.354V8.96996C14.419 8.74196 14.405 8.59296 14.376 8.52296C14.344 8.45396 14.229 8.41896 14.145 8.41896Z" fill="black"/>
<path d="M17 0H1C0.734784 0 0.48043 0.105357 0.292893 0.292893C0.105357 0.48043 0 0.734784 0 1V17C0 17.2652 0.105357 17.5196 0.292893 17.7071C0.48043 17.8946 0.734784 18 1 18H17C17.2652 18 17.5196 17.8946 17.7071 17.7071C17.8946 17.5196 18 17.2652 18 17V1C18 0.734784 17.8946 0.48043 17.7071 0.292893C17.5196 0.105357 17.2652 0 17 0ZM3.631 11.663H2.229V6.266H3.631V11.663ZM8.453 11.663H7.23L7.224 8.02L6.734 11.663H5.859L5.342 8.1L5.338 11.663H4.111V6.266H5.93C5.981 6.593 6.037 6.976 6.096 7.416L6.297 8.787L6.621 6.266H8.453V11.663ZM12.117 10.062C12.117 10.546 12.09 10.87 12.045 11.032C12.0082 11.1816 11.9249 11.3157 11.807 11.415C11.6835 11.5117 11.5389 11.5778 11.385 11.608C11.219 11.645 10.967 11.663 10.631 11.663H8.932V6.266H9.979C10.657 6.266 11.049 6.297 11.288 6.359C11.528 6.421 11.71 6.523 11.833 6.665C11.958 6.807 12.036 6.965 12.067 7.14C12.098 7.314 12.118 7.656 12.118 8.166L12.117 10.062ZM15.771 10.424C15.771 10.748 15.748 10.989 15.705 11.147C15.6535 11.3166 15.5442 11.4628 15.396 11.56C15.2291 11.6782 15.0285 11.7393 14.824 11.734C14.666 11.734 14.459 11.699 14.322 11.63C14.1753 11.5544 14.0467 11.448 13.945 11.318L13.857 11.662H12.595V6.266H13.945V8.021C14.0473 7.89836 14.1753 7.7997 14.32 7.732C14.457 7.668 14.664 7.636 14.824 7.636C15.01 7.636 15.172 7.665 15.308 7.723C15.4224 7.7689 15.523 7.84355 15.6001 7.93973C15.6772 8.03591 15.7281 8.15036 15.748 8.272C15.764 8.372 15.771 8.585 15.771 8.91V10.424Z" fill="black"/>
</svg>
