<svg width="24" height="16" viewBox="0 0 24 16" fill="none" xmlns="http://www.w3.org/2000/svg">
<path d="M12.09 8.73156C11.154 10.6636 9.873 13.2796 9.237 14.4596C8.621 15.5336 8.11 15.3906 7.705 14.4886C6.299 11.1676 3.412 5.34456 2.054 2.07956C1.803 1.47856 1.613 1.09256 1.435 0.940556C1.255 0.790556 0.881003 0.700223 0.313003 0.669556C0.10367 0.646889 -0.000663492 0.593889 3.1746e-06 0.510556V0.0555556L0.0520032 0.0105555C0.976003 0.00555553 5.453 0.0105555 5.453 0.0105555L5.504 0.0555556V0.489556C5.504 0.607556 5.429 0.666222 5.279 0.665556L4.715 0.696556C4.23 0.725556 3.988 0.860556 3.988 1.13256C3.988 1.26756 4.041 1.46256 4.154 1.73356C5.236 4.37956 8.972 12.2546 8.972 12.2546L9.108 12.3006L11.519 7.49056L11.037 6.42356L9.379 3.15956C9.379 3.15956 9.061 2.50556 8.951 2.28756C8.223 0.844556 8.239 0.769556 7.504 0.670556C7.297 0.647556 7.191 0.620556 7.191 0.521556V0.0535557L7.251 0.00855567H11.543L11.656 0.0455558V0.496556C11.656 0.601556 11.58 0.646556 11.429 0.646556L11.121 0.693556C10.329 0.754556 10.46 1.07456 10.985 2.11556L12.567 5.36756L14.325 1.86356C14.618 1.22356 14.558 1.06256 14.436 0.916556C14.366 0.832556 14.131 0.696556 13.624 0.676556L13.423 0.655556C13.3703 0.655687 13.3191 0.637681 13.278 0.604556C13.2568 0.590495 13.2396 0.571279 13.2278 0.548714C13.2161 0.526149 13.2103 0.500974 13.211 0.475556V0.0485556L13.272 0.00355556C14.519 -0.00444444 17.315 0.00355556 17.315 0.00355556L17.374 0.0485556V0.484556C17.374 0.605556 17.315 0.662556 17.181 0.662556C16.535 0.692556 16.399 0.757556 16.158 1.10156C16.038 1.28756 15.783 1.69056 15.512 2.14056L13.211 6.41356L13.146 6.54856L15.938 12.2606L16.108 12.3086L20.504 1.87056C20.658 1.44856 20.633 1.14856 20.44 0.975556C20.243 0.803556 20.094 0.702556 19.583 0.680556L19.163 0.664556C19.1089 0.665744 19.0558 0.650012 19.011 0.619556C18.968 0.590556 18.939 0.544556 18.939 0.500556V0.0645559L18.998 0.0195558H23.959L24 0.0645559V0.501556C24 0.620556 23.926 0.681556 23.791 0.681556C23.143 0.711556 22.664 0.861556 22.348 1.10256C22.034 1.35756 21.791 1.71856 21.612 2.16956C21.612 2.16956 17.569 11.4276 16.186 14.5086C15.661 15.5156 15.133 15.4256 14.683 14.4776C14.112 13.3066 12.91 10.6916 12.037 8.76756L12.09 8.73156Z" fill="black"/>
</svg>
